<svg width="1114" height="221" viewBox="0 0 1114 221" fill="none" xmlns="http://www.w3.org/2000/svg">
<path d="M36.7676 159.961V109.717H122.314C132.373 109.717 140.088 107.471 145.459 102.979C150.83 98.3887 153.516 91.748 153.516 83.0566V82.7637C153.516 74.0723 150.83 67.4805 145.459 62.9883C140.088 58.4961 132.373 56.25 122.314 56.25H36.7676V4.39453H135.059C154.297 4.39453 170.801 7.66602 184.57 14.209C198.438 20.6543 209.082 29.6875 216.504 41.3086C223.926 52.9297 227.637 66.5039 227.637 82.0312V82.3242C227.637 97.4609 223.926 110.889 216.504 122.607C209.082 134.229 198.438 143.359 184.57 150C170.801 156.641 154.297 159.961 135.059 159.961H36.7676ZM0 215.771V4.39453H73.2422V215.771H0ZM250.781 215.771V4.39453H324.316V215.771H250.781ZM485.303 220.166C464.502 220.166 445.752 217.725 429.053 212.842C412.451 207.861 398.193 200.635 386.279 191.162C374.463 181.689 365.381 170.166 359.033 156.592C352.783 142.92 349.658 127.295 349.658 109.717V109.57C349.658 86.8164 355.127 67.2852 366.064 50.9766C377.002 34.5703 392.578 21.9727 412.793 13.1836C433.105 4.39453 457.08 0 484.717 0C507.568 0 528.027 3.32031 546.094 9.96094C564.16 16.5039 578.955 25.5371 590.479 37.0605C602.1 48.4863 609.521 61.4746 612.744 76.0254L613.037 77.4902H539.209L538.477 76.4648C534.375 70.0195 527.93 64.8438 519.141 60.9375C510.449 57.0312 499.707 55.0781 486.914 55.0781C474.805 55.0781 464.062 57.0801 454.688 61.084C445.312 65.0879 437.891 71.0938 432.422 79.1016C427.051 87.1094 424.365 97.168 424.365 109.277V109.57C424.365 118.555 425.879 126.562 428.906 133.594C431.934 140.527 436.23 146.338 441.797 151.025C447.363 155.713 454.053 159.277 461.865 161.719C469.678 164.16 478.418 165.381 488.086 165.381C497.559 165.381 505.957 164.404 513.281 162.451C520.605 160.4 526.709 157.422 531.592 153.516C536.572 149.609 540.039 144.775 541.992 139.014L542.139 138.135H487.793V96.6797H614.795V117.773C614.795 133.008 611.768 146.924 605.713 159.521C599.756 172.021 591.113 182.812 579.785 191.895C568.457 200.977 554.834 207.959 538.916 212.842C522.998 217.725 505.127 220.166 485.303 220.166ZM640.723 215.771V4.39453H842.578V55.8105H714.258V86.4258H833.496V132.568H714.258V164.355H842.578V215.771H640.723ZM872.461 215.771V4.39453H1010.45C1031.25 4.39453 1048.58 7.17773 1062.45 12.7441C1076.42 18.2129 1086.87 26.2695 1093.8 36.9141C1100.83 47.4609 1104.35 60.2539 1104.35 75.293V75.5859C1104.35 90.5273 1100.59 103.369 1093.07 114.111C1085.64 124.854 1074.95 132.715 1060.99 137.695L1113.13 215.771H1030.96L989.648 149.854C989.16 149.854 988.623 149.854 988.037 149.854C987.451 149.854 986.914 149.854 986.426 149.854H945.996V215.771H872.461ZM945.996 102.979H1003.12C1011.72 102.979 1018.46 100.83 1023.34 96.5332C1028.32 92.2363 1030.81 86.3281 1030.81 78.8086V78.5156C1030.81 71.1914 1028.32 65.3809 1023.34 61.084C1018.36 56.6895 1011.62 54.4922 1003.12 54.4922H945.996V102.979Z" fill="#090909"/>
</svg>
