<svg width="100" height="18" viewBox="0 0 100 18" fill="none" xmlns="http://www.w3.org/2000/svg">
<path d="M39.2402 0C41.0646 4.6354e-05 42.6983 0.27133 44.1406 0.813477C45.583 1.34769 46.7646 2.08557 47.6846 3.02637C48.6122 3.95916 49.2046 5.02389 49.4619 6.21973L49.4854 6.33887H43.5908L43.5439 6.25488C43.2087 5.72075 42.6899 5.29449 41.9883 4.97559C41.2943 4.65665 40.4365 4.49707 39.415 4.49707C38.4482 4.49709 37.5903 4.66041 36.8418 4.9873C36.0934 5.31422 35.505 5.80898 35.0762 6.4707C34.6474 7.1245 34.4326 7.94593 34.4326 8.93457V8.95801C34.4326 9.69156 34.5493 10.3458 34.7832 10.9199C35.0248 11.4858 35.3683 11.9639 35.8125 12.3545C36.2569 12.7372 36.7914 13.0282 37.415 13.2275C38.0388 13.4269 38.7369 13.5273 39.5088 13.5273C40.2651 13.5273 40.9357 13.4428 41.5205 13.2754C42.1052 13.108 42.5926 12.8648 42.9824 12.5459C43.3799 12.227 43.6566 11.8326 43.8125 11.3623L43.8242 11.2783H39.5205V7.90527H49.626V9.62793C49.626 10.8797 49.3838 12.0203 48.9004 13.0488C48.4248 14.0693 47.7345 14.95 46.8301 15.6914C45.9256 16.4329 44.8383 17.0037 43.5674 17.4023C42.2964 17.801 40.869 18 39.2861 18C37.6333 18 36.1399 17.801 34.8066 17.4023C33.4734 16.9957 32.3311 16.4052 31.3799 15.6318C30.4365 14.8584 29.7119 13.9131 29.2051 12.7969C28.7061 11.6807 28.4561 10.4048 28.4561 8.96973V8.95801C28.4561 7.10035 28.8924 5.50157 29.7656 4.16211C30.6467 2.82257 31.8948 1.79378 33.5088 1.07617C35.1228 0.358594 37.0337 0 39.2402 0ZM10.7715 0.371094C12.3153 0.371094 13.6379 0.637656 14.7373 1.17188C15.8443 1.69808 16.6897 2.43609 17.2744 3.38477C17.867 4.3336 18.1641 5.44219 18.1641 6.70996V6.7334C18.1641 7.96928 17.867 9.06565 17.2744 10.0225C16.6897 10.9711 15.8442 11.7166 14.7373 12.2588C13.6379 12.801 12.3153 13.0723 10.7715 13.0723H5.84766V17.6289H0V0.371094H10.7715ZM26.1641 17.6289H20.3037V0.371094H26.1641V17.6289ZM63.8594 11.2422H63.9531L68.9355 0.371094H75.8711V17.6289H70.585V7.51074H70.3691L65.7773 17.6289H62.0234L57.4316 7.51074H57.2168V17.6289H51.9297V0.371094H58.8652L63.8594 11.2422ZM100 17.6289H93.8242L92.5586 14.3047H85.1953L83.9297 17.6289H77.7432L85.0527 0.371094H92.7021L100 17.6289ZM86.6484 10.4893H91.1055L88.9238 4.75977H88.8301L86.6484 10.4893ZM5.84766 8.96973H9.76562C10.5687 8.96973 11.1815 8.7867 11.6025 8.41992C12.0313 8.04517 12.2461 7.50254 12.2461 6.79297V6.76953C12.2461 6.06008 12.0312 5.52204 11.6025 5.15527C11.1737 4.7885 10.5609 4.60449 9.76562 4.60449H5.84766V8.96973Z" fill="black"/>
</svg>
